<svg aria-hidden="true" style="width:0;height:0;position:absolute;overflow:hidden" xmlns="http://www.w3.org/2000/svg"><defs><symbol id="arrow" viewBox="0 0 32 32"><path fill="#f6f5ef" style="fill:var(--color1,#f6f5ef)" d="M8 9.76 16 0l8 9.76h-6.62V32H14.6V9.76H8z"/></symbol><symbol id="youtube-logo" viewBox="0 0 32 32"><path fill="#f6f5ef" style="fill:var(--color1,#f6f5ef)" d="M24.229 5.989c-1.371-.091-4.16-.16-8.411-.16h-.549c-4.091 0-6.811.069-8.16.229-1.851.16-3.109.64-3.84 1.28-.64.571-1.12 1.6-1.28 2.971-.091.869-.16 2.72-.16 5.509v.411c0 2.629.069 4.48.251 5.349.229 1.28.617 2.24 1.44 2.811.777.64 2.149 1.029 4.069 1.189 1.349.091 4.16.16 8.411.16h.549c4.069 0 6.789-.069 8.16-.229 1.851-.16 3.109-.64 3.84-1.28.64-.571 1.12-1.6 1.28-2.971.069-.869.16-2.72.16-5.509v-.411c0-2.629-.091-4.48-.251-5.349-.229-1.28-.64-2.24-1.44-2.811-.777-.64-2.149-1.029-4.069-1.189zm-3.132 9.828-8.8 5.28v-10.56l8.8 5.28z"/></symbol><symbol id="menu" viewBox="0 0 32 32"><path fill="#f6f5ef" style="fill:var(--color1,#f6f5ef)" d="M0 6.384C0 5.504.704 4.8 1.584 4.8H14.4c.416 0 .832.16 1.12.464.304.288.48.704.48 1.12s-.176.832-.48 1.12a1.547 1.547 0 0 1-1.12.464H1.584c-.416 0-.832-.16-1.12-.464A1.544 1.544 0 0 1 0 6.399v-.016.001zM0 16c0-.896.704-1.6 1.584-1.6H30.4c.416 0 .832.16 1.12.464.295.289.478.691.48 1.136 0 .416-.176.816-.48 1.12a1.547 1.547 0 0 1-1.12.464H1.584c-.416 0-.832-.16-1.12-.464A1.568 1.568 0 0 1 0 16.004V16zm1.584 8.016c-.416 0-.832.16-1.12.464C.16 24.768 0 25.184 0 25.6s.16.832.464 1.12c.288.304.704.48 1.12.48H20.8c.416 0 .832-.176 1.12-.48.304-.288.48-.704.48-1.12s-.176-.832-.48-1.12a1.54 1.54 0 0 0-1.105-.464H1.584z"/></symbol><symbol id="facebook-logo" viewBox="0 0 32 32"><path fill="#f6f5ef" style="fill:var(--color1,#f6f5ef)" d="M21.44 5.312h3.093V.213A39.898 39.898 0 0 0 20.032 0c-4.48 0-7.531 2.645-7.531 7.509v4.203H7.466v5.696h5.035V32h6.037V17.408h5.035l.747-5.696h-5.781V8.064c0-1.664.469-2.752 2.901-2.752z"/></symbol><symbol id="instagram-logo" viewBox="0 0 32 32"><path fill="#f6f5ef" style="fill:var(--color1,#f6f5ef)" d="M24.526 5.531c-.392.001-.756.12-1.058.324l.007-.004c-.32.206-.571.503-.709.869-.16.343-.183.731-.114 1.097s.251.709.526.983c.274.274.617.457.983.526s.754.046 1.097-.114c.366-.137.663-.389.869-.709.206-.297.32-.686.32-1.051 0-.526-.206-1.006-.549-1.371a1.988 1.988 0 0 0-1.371-.549zm7.36 3.863a11.947 11.947 0 0 0-.731-3.886 7.857 7.857 0 0 0-1.85-2.833l-.001-.001A7.485 7.485 0 0 0 26.47.845a11.063 11.063 0 0 0-3.876-.754h-.009C20.894 0 20.345 0 16.002 0c-4.366 0-4.914 0-6.606.091A11.297 11.297 0 0 0 5.51.845a7.485 7.485 0 0 0-2.834 1.829c-.823.8-1.44 1.76-1.829 2.834a11.063 11.063 0 0 0-.754 3.876v.009c-.091 1.691-.091 2.24-.091 6.606 0 4.343 0 4.891.091 6.583.023 1.326.274 2.651.754 3.886a7.485 7.485 0 0 0 1.829 2.834c.8.823 1.76 1.44 2.834 1.829 1.234.48 2.56.731 3.886.754 1.691.114 2.24.114 6.606.114 4.343 0 4.891 0 6.583-.114a11.243 11.243 0 0 0 3.962-.781l-.077.027a7.485 7.485 0 0 0 2.834-1.829 7.526 7.526 0 0 0 1.851-2.834 11.92 11.92 0 0 0 .731-3.886c0-1.691.114-2.24.114-6.583 0-4.366 0-4.914-.114-6.606zm-2.88 12.983a8.872 8.872 0 0 1-.526 2.994 5.227 5.227 0 0 1-1.211 1.829 5.31 5.31 0 0 1-1.851 1.211 8.647 8.647 0 0 1-2.971.526c-1.6.091-2.194.114-6.4.114s-4.8 0-6.4-.114a9.354 9.354 0 0 1-3.086-.457c-.663-.297-1.28-.686-1.783-1.211-.526-.503-.914-1.143-1.166-1.851a8.606 8.606 0 0 1-.64-3.04c0-1.577-.114-2.171-.114-6.377 0-4.229 0-4.823.114-6.4 0-1.051.183-2.08.549-3.04a4.614 4.614 0 0 1 1.257-1.76 4.68 4.68 0 0 1 1.783-1.28 8.523 8.523 0 0 1 3.04-.549c1.6 0 2.171-.114 6.4-.114 4.206 0 4.777 0 6.377.114 1.029 0 2.034.183 2.994.549.709.251 1.371.709 1.897 1.28a4.75 4.75 0 0 1 1.211 1.76c.343.96.526 1.989.526 3.04.091 1.577.114 2.171.114 6.4 0 4.206-.023 4.8-.114 6.377zM16 7.771a8.532 8.532 0 0 0-4.571 1.394c-2.203 1.503-3.631 4.002-3.631 6.834 0 .566.057 1.119.166 1.653l-.009-.053a8.088 8.088 0 0 0 2.263 4.206 8.24 8.24 0 0 0 4.183 2.24 8.253 8.253 0 0 0 8.416-3.468l.018-.029a8.225 8.225 0 0 0 1.37-4.567 8.263 8.263 0 0 0-.636-3.191l.02.055a8.48 8.48 0 0 0-1.784-2.675l.001.001a8.16 8.16 0 0 0-5.791-2.4H16h.001zm0 13.555a5.244 5.244 0 0 1-2.971-.914 5.398 5.398 0 0 1-1.966-2.377c-.411-.983-.503-2.057-.297-3.086s.709-1.989 1.463-2.72c.731-.754 1.691-1.257 2.72-1.463s2.103-.114 3.086.297a5.391 5.391 0 0 1 2.377 1.966c.574.829.917 1.856.917 2.963 0 .738-.152 1.44-.427 2.077l.013-.034a5.18 5.18 0 0 1-1.166 1.714 5.195 5.195 0 0 1-1.714 1.166 5.31 5.31 0 0 1-2.034.411z"/></symbol><symbol id="close-btn" viewBox="0 0 32 32"><path fill="none" stroke="#f6f5ef" style="stroke:var(--color1,#f6f5ef)" stroke-linejoin="round" stroke-linecap="round" stroke-width="1.733" d="M24 8 8 24M8 8l16 16"/></symbol></defs></svg>