<svg aria-hidden="true" style="position: absolute; width: 0; height: 0; overflow: hidden;" version="1.1" xmlns="http://www.w3.org/2000/svg" xmlns:xlink="http://www.w3.org/1999/xlink">
<defs>
<symbol id="arrow" viewBox="0 0 32 32">
<path fill="#f6f5ef" style="fill: var(--color1, #f6f5ef)" d="M8 9.76l8-9.76 8 9.76h-6.62v22.24h-2.78v-22.24h-6.6z"></path>
</symbol>
<symbol id="youtube-logo" viewBox="0 0 32 32">
<path fill="#f6f5ef" style="fill: var(--color1, #f6f5ef)" d="M24.229 5.989c-1.371-0.091-4.16-0.16-8.411-0.16h-0.549c-4.091 0-6.811 0.069-8.16 0.229-1.851 0.16-3.109 0.64-3.84 1.28-0.64 0.571-1.12 1.6-1.28 2.971-0.091 0.869-0.16 2.72-0.16 5.509v0.411c0 2.629 0.069 4.48 0.251 5.349 0.229 1.28 0.617 2.24 1.44 2.811 0.777 0.64 2.149 1.029 4.069 1.189 1.349 0.091 4.16 0.16 8.411 0.16h0.549c4.069 0 6.789-0.069 8.16-0.229 1.851-0.16 3.109-0.64 3.84-1.28 0.64-0.571 1.12-1.6 1.28-2.971 0.069-0.869 0.16-2.72 0.16-5.509v-0.411c0-2.629-0.091-4.48-0.251-5.349-0.229-1.28-0.64-2.24-1.44-2.811-0.777-0.64-2.149-1.029-4.069-1.189zM21.097 15.817l-8.8 5.28v-10.56l8.8 5.28z"></path>
</symbol>
<symbol id="menu" viewBox="0 0 32 32">
<path fill="#f6f5ef" style="fill: var(--color1, #f6f5ef)" d="M0 6.384c0-0.88 0.704-1.584 1.584-1.584h12.816c0.416 0 0.832 0.16 1.12 0.464 0.304 0.288 0.48 0.704 0.48 1.12s-0.176 0.832-0.48 1.12c-0.288 0.304-0.704 0.464-1.12 0.464h-12.816c-0.416 0-0.832-0.16-1.12-0.464-0.286-0.281-0.464-0.672-0.464-1.105 0-0.005 0-0.011 0-0.016v0.001zM0 16c0-0.896 0.704-1.6 1.584-1.6h28.816c0.416 0 0.832 0.16 1.12 0.464 0.295 0.289 0.478 0.691 0.48 1.136v0c0 0.416-0.176 0.816-0.48 1.12-0.288 0.304-0.704 0.464-1.12 0.464h-28.816c-0.416 0-0.832-0.16-1.12-0.464-0.287-0.285-0.464-0.68-0.464-1.116 0-0.001 0-0.003 0-0.004v0zM1.584 24.016c-0.416 0-0.832 0.16-1.12 0.464-0.304 0.288-0.464 0.704-0.464 1.12s0.16 0.832 0.464 1.12c0.288 0.304 0.704 0.48 1.12 0.48h19.216c0.416 0 0.832-0.176 1.12-0.48 0.304-0.288 0.48-0.704 0.48-1.12s-0.176-0.832-0.48-1.12c-0.281-0.287-0.672-0.464-1.105-0.464-0.005 0-0.011 0-0.016 0h-19.215z"></path>
</symbol>
<symbol id="facebook-logo" viewBox="0 0 32 32">
<path fill="#f6f5ef" style="fill: var(--color1, #f6f5ef)" d="M21.44 5.312h3.093v-5.099c-1.515-0.149-3.008-0.235-4.501-0.213-4.48 0-7.531 2.645-7.531 7.509v4.203h-5.035v5.696h5.035v14.592h6.037v-14.592h5.035l0.747-5.696h-5.781v-3.648c0-1.664 0.469-2.752 2.901-2.752z"></path>
</symbol>
<symbol id="instagram-logo" viewBox="0 0 32 32">
<path fill="#f6f5ef" style="fill: var(--color1, #f6f5ef)" d="M24.526 5.531c-0.392 0.001-0.756 0.12-1.058 0.324l0.007-0.004c-0.32 0.206-0.571 0.503-0.709 0.869-0.16 0.343-0.183 0.731-0.114 1.097s0.251 0.709 0.526 0.983c0.274 0.274 0.617 0.457 0.983 0.526s0.754 0.046 1.097-0.114c0.366-0.137 0.663-0.389 0.869-0.709 0.206-0.297 0.32-0.686 0.32-1.051 0-0.526-0.206-1.006-0.549-1.371-0.356-0.339-0.839-0.548-1.371-0.549h-0zM31.886 9.394c-0.023-1.326-0.274-2.629-0.731-3.886-0.425-1.11-1.055-2.055-1.85-2.833l-0.001-0.001c-0.8-0.823-1.76-1.44-2.834-1.829-1.151-0.457-2.483-0.732-3.876-0.754l-0.009-0c-1.691-0.091-2.24-0.091-6.583-0.091-4.366 0-4.914 0-6.606 0.091-1.326 0.023-2.651 0.274-3.886 0.754-1.074 0.389-2.034 1.006-2.834 1.829-0.823 0.8-1.44 1.76-1.829 2.834-0.457 1.151-0.732 2.483-0.754 3.876l-0 0.009c-0.091 1.691-0.091 2.24-0.091 6.606 0 4.343 0 4.891 0.091 6.583 0.023 1.326 0.274 2.651 0.754 3.886 0.389 1.074 1.006 2.034 1.829 2.834 0.8 0.823 1.76 1.44 2.834 1.829 1.234 0.48 2.56 0.731 3.886 0.754 1.691 0.114 2.24 0.114 6.606 0.114 4.343 0 4.891 0 6.583-0.114 1.403-0.022 2.735-0.297 3.962-0.781l-0.077 0.027c1.074-0.389 2.034-1.006 2.834-1.829 0.823-0.8 1.463-1.76 1.851-2.834 0.457-1.257 0.709-2.56 0.731-3.886 0-1.691 0.114-2.24 0.114-6.583 0-4.366 0-4.914-0.114-6.606zM29.006 22.377c0 1.029-0.183 2.034-0.526 2.994-0.274 0.686-0.686 1.326-1.211 1.829-0.526 0.526-1.143 0.937-1.851 1.211-0.937 0.343-1.943 0.526-2.971 0.526-1.6 0.091-2.194 0.114-6.4 0.114s-4.8 0-6.4-0.114c-1.051 0.023-2.103-0.137-3.086-0.457-0.663-0.297-1.28-0.686-1.783-1.211-0.526-0.503-0.914-1.143-1.166-1.851-0.389-0.96-0.617-1.989-0.64-3.040 0-1.577-0.114-2.171-0.114-6.377 0-4.229 0-4.823 0.114-6.4 0-1.051 0.183-2.080 0.549-3.040 0.274-0.686 0.709-1.28 1.257-1.76 0.503-0.571 1.097-1.006 1.783-1.28 0.96-0.366 1.989-0.549 3.040-0.549 1.6 0 2.171-0.114 6.4-0.114 4.206 0 4.777 0 6.377 0.114 1.029 0 2.034 0.183 2.994 0.549 0.709 0.251 1.371 0.709 1.897 1.28 0.526 0.48 0.937 1.074 1.211 1.76 0.343 0.96 0.526 1.989 0.526 3.040 0.091 1.577 0.114 2.171 0.114 6.4 0 4.206-0.023 4.8-0.114 6.377zM16 7.771c-1.623 0.023-3.223 0.503-4.571 1.394-2.203 1.503-3.631 4.002-3.631 6.834 0 0.566 0.057 1.119 0.166 1.653l-0.009-0.053c0.32 1.6 1.097 3.063 2.263 4.206 1.143 1.143 2.606 1.92 4.183 2.24 0.475 0.097 1.021 0.153 1.58 0.153 2.842 0 5.349-1.435 6.836-3.621l0.018-0.029c0.858-1.286 1.37-2.866 1.37-4.567 0-1.131-0.226-2.209-0.636-3.191l0.020 0.055c-0.441-1.038-1.043-1.926-1.784-2.675l0.001 0.001c-1.482-1.483-3.529-2.4-5.791-2.4-0.005 0-0.010 0-0.015 0h0.001zM16 21.326c-1.074 0-2.103-0.32-2.971-0.914-0.869-0.571-1.554-1.417-1.966-2.377-0.411-0.983-0.503-2.057-0.297-3.086s0.709-1.989 1.463-2.72c0.731-0.754 1.691-1.257 2.72-1.463s2.103-0.114 3.086 0.297c0.96 0.411 1.806 1.097 2.377 1.966 0.574 0.829 0.917 1.856 0.917 2.963 0 0.738-0.152 1.44-0.427 2.077l0.013-0.034c-0.274 0.64-0.663 1.234-1.166 1.714-0.48 0.503-1.074 0.891-1.714 1.166-0.663 0.274-1.349 0.411-2.034 0.411z"></path>
</symbol>
<symbol id="close-btn" viewBox="0 0 32 32">
<path fill="none" stroke="#f6f5ef" style="stroke: var(--color1, #f6f5ef)" stroke-linejoin="round" stroke-linecap="round" stroke-miterlimit="4" stroke-width="1.7333" d="M24 8l-16 16M8 8l16 16"></path>
</symbol>
</defs>
</svg>
